<svg width="38" height="38" viewBox="0 0 38 38" fill="none" xmlns="http://www.w3.org/2000/svg">
<path d="M21.5635 33.6711C21.5635 34.4947 20.8956 35.1598 20.0706 35.1612V37.424C20.0706 37.741 20.3295 38 20.6493 38H36.8114C37.1298 38 37.3859 37.741 37.3859 37.4226V35.1598C36.5977 35.123 35.9694 34.4707 35.9694 33.6725C35.9694 32.8716 36.5977 32.2192 37.3859 32.1824V29.9197C37.3859 29.6013 37.1298 29.3409 36.8114 29.3409H20.6493C20.3295 29.3409 20.0706 29.6013 20.0706 29.9197V32.1782C20.8956 32.1782 21.5635 32.8489 21.5635 33.6711Z" fill="#179BD0"/>
<path d="M33.0808 21.1333C32.2586 21.1333 31.5907 20.4653 31.5907 19.6417H29.3279C29.0095 19.6417 28.752 19.9007 28.752 20.2176V36.3811C28.752 36.7009 29.0095 36.9599 29.3279 36.9599H31.5921C31.6275 36.1688 32.2812 35.5391 33.0808 35.5391C33.8789 35.5391 34.5327 36.1702 34.5695 36.9599H36.8323C37.1492 36.9599 37.4096 36.7009 37.4096 36.3811V20.2176C37.4096 19.9007 37.1492 19.6417 36.8323 19.6417H34.5723C34.5723 20.4653 33.9044 21.1333 33.0808 21.1333Z" fill="#179BD0"/>
<path d="M33.5806 16.3446C34.4028 16.3446 35.0693 17.014 35.0707 17.8361H37.3321C37.6505 17.8361 37.9094 17.5786 37.9094 17.2602L37.908 1.0982C37.908 0.779797 37.6505 0.519369 37.3321 0.519369H35.0693C35.0325 1.309 34.3801 1.94015 33.5806 1.94015C32.7811 1.94015 32.1287 1.309 32.0891 0.519369H29.8291C29.5079 0.519369 29.2503 0.779797 29.2503 1.0982V17.2602C29.2503 17.5786 29.5079 17.8361 29.8291 17.8361H32.0877C32.0877 17.014 32.7556 16.3446 33.5806 16.3446Z" fill="#40993C"/>
<path d="M21.042 4.82697C21.042 5.65057 20.3727 6.31851 19.5491 6.31851L19.5505 8.57841C19.5491 8.89822 19.8095 9.15578 20.1279 9.15578H36.2885C36.6083 9.15578 36.8687 8.89822 36.8687 8.57841V6.31706C36.0776 6.27885 35.4479 5.62651 35.4479 4.82697C35.4479 4.02743 36.0776 3.37503 36.8672 3.33965V1.07408C36.8672 0.758511 36.6083 0.496704 36.2899 0.496704H20.1265C19.8095 0.496704 19.5505 0.758511 19.5505 1.07408V3.33681C20.3741 3.33681 21.042 4.00196 21.042 4.82697Z" fill="#40993C"/>
<path d="M16.4601 4.32888C16.4601 3.50529 17.1295 2.83873 17.9517 2.83873V0.575996C17.9517 0.257595 17.6941 0 17.3743 0L1.21113 0.00145044C0.89443 0.00145044 0.634619 0.257562 0.634619 0.577378V2.84018C1.4234 2.87697 2.05468 3.52931 2.05468 4.32743C2.05468 5.12839 1.4234 5.78076 0.634619 5.81897V8.08032C0.634619 8.39872 0.89443 8.65908 1.21113 8.65908H17.3743C17.6927 8.65908 17.9517 8.39875 17.9517 8.07894V5.82042C17.1295 5.82042 16.4601 5.1539 16.4601 4.32888Z" fill="#232943"/>
<path d="M4.94221 16.8683C5.76595 16.8683 6.43318 17.5348 6.43318 18.357H8.6951C9.0135 18.357 9.27104 18.0995 9.27104 17.7811L9.26991 1.61897C9.26991 1.29774 9.01349 1.04021 8.69396 1.04021H6.43148C6.39383 1.82984 5.74161 2.45958 4.94221 2.46099C4.14295 2.46099 3.49073 1.82988 3.45422 1.04166H1.1906C0.872767 1.04166 0.611816 1.29774 0.611816 1.61897V17.7811C0.611816 18.0995 0.872767 18.357 1.1906 18.357H3.45138C3.45138 17.5334 4.11748 16.8683 4.94221 16.8683Z" fill="#232943"/>
<path d="M4.42112 21.7119C3.59851 21.7119 2.93184 21.0412 2.93184 20.219H0.669362C0.351527 20.219 0.0934064 20.4765 0.0905762 20.7963L0.0934092 36.9598C0.0934092 37.2796 0.349829 37.5357 0.669362 37.5357H2.93184C2.96892 36.7447 3.62285 36.1164 4.42112 36.1164C5.22038 36.1164 5.87274 36.7447 5.91024 37.5357H8.17386C8.49169 37.5357 8.7515 37.2796 8.7515 36.9598V20.7963C8.7515 20.4765 8.4917 20.219 8.1723 20.219H5.9142C5.9142 21.0412 5.24472 21.7119 4.42112 21.7119Z" fill="#F0442A"/>
<path d="M16.9598 33.228C16.9598 32.4044 17.6277 31.7364 18.4513 31.7364V29.4765C18.4513 29.1553 18.1909 28.8992 17.8739 28.8992H1.7126C1.39151 28.8992 1.13326 29.1553 1.13326 29.4765V31.7364C1.92374 31.7761 2.55347 32.4299 2.55347 33.228C2.55347 34.0275 1.92218 34.6785 1.13326 34.7167V36.9809C1.13326 37.2993 1.39152 37.5582 1.70992 37.5582H17.8739C18.1909 37.5582 18.4513 37.2993 18.4513 36.9809V34.7181C17.6263 34.7181 16.9598 34.0516 16.9598 33.228Z" fill="#F0442A"/>
</svg>
