<svg width="24" height="25" viewBox="0 0 24 25" fill="none" xmlns="http://www.w3.org/2000/svg">
<g clip-path="url(#clip0_317_41619)">
<path d="M12 6.72656C15.79 6.72656 19.17 8.85656 20.82 12.2266C19.17 15.5966 15.79 17.7266 12 17.7266C8.21 17.7266 4.83 15.5966 3.18 12.2266C4.83 8.85656 8.21 6.72656 12 6.72656ZM12 4.72656C7 4.72656 2.73 7.83656 1 12.2266C2.73 16.6166 7 19.7266 12 19.7266C17 19.7266 21.27 16.6166 23 12.2266C21.27 7.83656 17 4.72656 12 4.72656ZM12 9.72656C13.38 9.72656 14.5 10.8466 14.5 12.2266C14.5 13.6066 13.38 14.7266 12 14.7266C10.62 14.7266 9.5 13.6066 9.5 12.2266C9.5 10.8466 10.62 9.72656 12 9.72656ZM12 7.72656C9.52 7.72656 7.5 9.74656 7.5 12.2266C7.5 14.7066 9.52 16.7266 12 16.7266C14.48 16.7266 16.5 14.7066 16.5 12.2266C16.5 9.74656 14.48 7.72656 12 7.72656Z" fill="#323232"/>
</g>
<defs>
<clipPath id="clip0_317_41619">
<rect width="24" height="24" fill="white" transform="translate(0 0.726562)"/>
</clipPath>
</defs>
</svg>
