<svg width="24" height="25" viewBox="0 0 24 25" fill="none" xmlns="http://www.w3.org/2000/svg">
<g clip-path="url(#clip0_317_41633)">
<path d="M19.35 10.7666C18.67 7.31656 15.64 4.72656 12 4.72656C9.11 4.72656 6.6 6.36656 5.35 8.76656C2.34 9.08656 0 11.6366 0 14.7266C0 18.0366 2.69 20.7266 6 20.7266H19C21.76 20.7266 24 18.4866 24 15.7266C24 13.0866 21.95 10.9466 19.35 10.7666ZM19 18.7266H6C3.79 18.7266 2 16.9366 2 14.7266C2 12.6766 3.53 10.9666 5.56 10.7566L6.63 10.6466L7.13 9.69656C8.08 7.86656 9.94 6.72656 12 6.72656C14.62 6.72656 16.88 8.58656 17.39 11.1566L17.69 12.6566L19.22 12.7666C20.78 12.8666 22 14.1766 22 15.7266C22 17.3766 20.65 18.7266 19 18.7266ZM8 13.7266H10.55V16.7266H13.45V13.7266H16L12 9.72656L8 13.7266Z" fill="black"/>
</g>
<defs>
<clipPath id="clip0_317_41633">
<rect width="24" height="24" fill="white" transform="translate(0 0.726562)"/>
</clipPath>
</defs>
</svg>
