<svg width="892" height="124" viewBox="0 0 892 124" fill="none" xmlns="http://www.w3.org/2000/svg">
<path d="M273.859 71.4722C273.859 50.1998 289.041 35.2695 309.679 35.2695C328.216 35.2695 343.014 47.7158 344.758 65.249C345.128 68.7372 345.009 72.4631 344.758 75.7002H289.279C290.89 88.0144 299.598 95.2285 310.049 95.2285C317.514 95.2285 325.098 91.3704 327.833 84.2752H343.384C340.517 97.9635 327.714 107.662 309.679 107.662C288.909 107.662 273.859 92.7313 273.859 71.459V71.4722ZM329.088 64.5091C327.344 53.318 318.267 47.7158 310.062 47.7158C300.364 47.7158 292.278 53.8069 289.781 64.5091H329.088Z" fill="#002E33"/>
<path d="M352.484 71.5894C352.484 51.308 366.543 35.3867 386.943 35.3867C397.262 35.3867 404.608 39.2448 409.457 45.0848V36.7476H424.137V106.154H409.457V97.8165C404.608 103.908 397.262 107.647 386.943 107.647C366.543 107.647 352.484 91.7254 352.484 71.5762V71.5894ZM388.555 94.2226C399.627 94.2226 409.074 85.0134 409.074 71.5894C409.074 58.1653 399.746 48.824 388.555 48.824C376.743 48.824 367.653 57.7822 367.653 71.5894C367.653 85.3966 376.73 94.2226 388.555 94.2226Z" fill="#002E33"/>
<path d="M440.748 93.9837V30.5234V18.3281H455.678V93.9705V106.166H440.734V93.9705L440.748 93.9837Z" fill="#002E33"/>
<path d="M471.68 88.3823V49.9467V36.7605V18.4609H486.729V36.7605H503.271V49.9467H486.729V92.9935H502.782V106.18H489.596C478.405 106.18 471.68 100.71 471.68 88.3955V88.3823Z" fill="#002E33"/>
<path d="M515.836 30.5234V18.3281H530.885V43.7228C533.99 38.9927 540.715 35.2667 548.55 35.2667C563.481 35.2667 572.809 45.097 572.809 62.0091V106.166H557.76V63.1322C557.76 53.923 552.409 47.9509 544.692 47.9509C536.976 47.9509 530.885 53.553 530.885 63.5022V106.166H515.836V30.5234Z" fill="#002E33"/>
<path d="M245.198 27.0801V55.3308H206.473V70.9761H190.805V108.08L206.473 99.0801V70.9761H245.198V108.08L261.001 99.0801V18L245.198 27.0801ZM190.805 27.0801V55.3308H206.473V18L190.805 27.0801Z" fill="#002E33"/>
<path d="M190.804 55.3164H175V71.1198H190.804V55.3164Z" fill="#002E33"/>
<path d="M587.344 18.5273H617.825C636.112 18.5273 648.796 31.7136 648.796 48.0048C648.796 64.296 636.231 77.3633 617.825 77.3633H602.644V99.1482L587.344 108V18.5273ZM614.839 64.3092C625.542 64.3092 632.624 58.4692 632.624 48.018C632.624 37.5668 625.409 31.5947 614.707 31.5947H602.644V64.3092H614.839Z" fill="#00D6B8"/>
<path d="M677.028 36.9336H693.702V50.1198H674.174V106.34H659.125V54.731C659.125 42.4168 665.837 36.9468 677.041 36.9468L677.028 36.9336Z" fill="#00D6B8"/>
<path d="M697.445 71.7737C697.445 50.6334 712.125 35.7031 733.265 35.7031C754.405 35.7031 769.467 50.6334 769.467 71.7737C769.467 92.9139 754.669 107.844 733.265 107.844C711.86 107.844 697.445 92.9139 697.445 71.7737ZM733.265 94.4069C744.707 94.4069 754.286 85.6998 754.286 71.7737C754.286 57.8475 744.707 49.1404 733.265 49.1404C721.823 49.1404 712.613 57.7286 712.613 71.7737C712.613 85.8187 721.942 94.4069 733.265 94.4069Z" fill="#00D6B8"/>
<path d="M777.188 71.7737C777.188 50.6334 791.867 35.7031 813.007 35.7031C834.147 35.7031 849.21 50.6334 849.21 71.7737C849.21 92.9139 834.412 107.844 813.007 107.844C791.603 107.844 777.188 92.9139 777.188 71.7737ZM813.007 94.4069C824.449 94.4069 834.028 85.6998 834.028 71.7737C834.028 57.8475 824.449 49.1404 813.007 49.1404C801.565 49.1404 792.356 57.7286 792.356 71.7737C792.356 85.8187 801.684 94.4069 813.007 94.4069Z" fill="#00D6B8"/>
<path d="M877.385 18H890.571V31.1862H874.518V44.8745H890.571V58.0607H874.518V106.353H859.469V58.0475V44.8613V35.7842C859.469 23.47 866.181 18 877.385 18Z" fill="#00D6B8"/>
<path fill-rule="evenodd" clip-rule="evenodd" d="M28.5071 0H40.9812V27.0471C40.9812 39.617 33.4943 47.1961 20.5891 47.1961C7.68398 47.1961 0 39.295 0 27.0471V0H12.4742V27.0966C12.4742 32.4961 15.5404 35.5674 20.5276 35.5674C25.5148 35.5674 28.5071 32.4961 28.5071 27.0966V0ZM21.1309 93.6368L25.0838 94.6028C36.2157 97.3026 40.3163 102.492 40.3163 108.981C40.3163 117.526 32.7308 123.483 20.035 123.483C12.9298 123.483 4.18678 120.486 0.812729 114.331L8.54596 108.04C11.6737 111.235 15.2202 113.167 19.9734 113.167C24.0863 113.167 27.3619 111.78 27.3619 109.303C27.3619 107.309 25.8719 106.541 21.7959 105.513L17.6584 104.485C6.58803 101.724 2.30273 95.4449 2.30273 89.4015C2.30273 81.587 9.17398 74.9615 21.2171 74.9615C28.347 74.9615 35.4522 77.9956 38.7154 83.4942L30.9822 89.7854C28.347 87.4076 25.1453 85.6614 21.1556 85.6614C16.8456 85.6614 14.7399 87.4324 14.7399 89.0795C14.7399 91.2591 16.7471 92.547 21.1556 93.6368H21.1309ZM71.5078 76.299H111.134V87.1847H97.5767V122.021H85.0533V87.1847H71.4955V76.299H71.5078ZM100.15 31.3072H82.4919V13.5483H100.15V31.3072Z" fill="#002E33"/>
</svg>
