<svg width="16" height="16" viewBox="0 0 16 16" fill="none" xmlns="http://www.w3.org/2000/svg">
<path fill-rule="evenodd" clip-rule="evenodd" d="M13.0199 2.97994C13.2152 3.1752 13.2152 3.49179 13.0199 3.68705L3.68656 13.0204C3.4913 13.2156 3.17472 13.2156 2.97945 13.0204C2.78419 12.8251 2.78419 12.5085 2.97945 12.3133L12.3128 2.97994C12.508 2.78468 12.8246 2.78468 13.0199 2.97994Z" fill="#FCFCFC"/>
<path fill-rule="evenodd" clip-rule="evenodd" d="M2.97945 2.97994C3.17472 2.78468 3.4913 2.78468 3.68656 2.97994L13.0199 12.3133C13.2152 12.5085 13.2152 12.8251 13.0199 13.0204C12.8246 13.2156 12.508 13.2156 12.3128 13.0204L2.97945 3.68705C2.78419 3.49179 2.78419 3.1752 2.97945 2.97994Z" fill="#FCFCFC"/>
</svg>
