<?xml version="1.0" encoding="UTF-8"?>
<!DOCTYPE svg PUBLIC "-//W3C//DTD SVG 1.1//EN" "http://www.w3.org/Graphics/SVG/1.1/DTD/svg11.dtd">
<svg xmlns="http://www.w3.org/2000/svg" version="1.1" width="48px" height="48px" style="shape-rendering:geometricPrecision; text-rendering:geometricPrecision; image-rendering:optimizeQuality; fill-rule:evenodd; clip-rule:evenodd" xmlns:xlink="http://www.w3.org/1999/xlink">
<g><path style="opacity:1" fill="#036dc3" d="M 8.5,4.5 C 13.8333,4.5 19.1667,4.5 24.5,4.5C 24.5,6.5 24.5,8.5 24.5,10.5C 19.1667,10.5 13.8333,10.5 8.5,10.5C 8.5,8.5 8.5,6.5 8.5,4.5 Z"/></g>
<g><path style="opacity:1" fill="#036cc1" d="M 24.5,4.5 C 29.1667,4.5 33.8333,4.5 38.5,4.5C 38.5,6.5 38.5,8.5 38.5,10.5C 33.8333,10.5 29.1667,10.5 24.5,10.5C 24.5,8.5 24.5,6.5 24.5,4.5 Z"/></g>
<g><path style="opacity:0.929" fill="#27aee8" d="M 8.5,4.5 C 8.5,6.5 8.5,8.5 8.5,10.5C 8.5,12.1667 8.5,13.8333 8.5,15.5C 6.5,15.5 4.5,15.5 2.5,15.5C 1.89469,10.4329 3.89469,6.7662 8.5,4.5 Z"/></g>
<g><path style="opacity:1" fill="#25abe7" d="M 38.5,4.5 C 43.1053,6.7662 45.1053,10.4329 44.5,15.5C 42.5,15.5 40.5,15.5 38.5,15.5C 38.5,13.8333 38.5,12.1667 38.5,10.5C 38.5,8.5 38.5,6.5 38.5,4.5 Z"/></g>
<g><path style="opacity:0.945" fill="#2eb8ed" d="M 29.5,22.5 C 26.7458,23.9459 23.7458,24.9459 20.5,25.5C 18.712,25.7852 17.0453,25.4519 15.5,24.5C 17.8333,21.5 20.5,18.8333 23.5,16.5C 25.8545,18.1878 27.8545,20.1878 29.5,22.5 Z"/></g>
<g><path style="opacity:1" fill="#2ab2ea" d="M 29.5,22.5 C 30.4778,22.811 31.1445,23.4777 31.5,24.5C 29.9547,25.4519 28.288,25.7852 26.5,25.5C 26.5,27.5 26.5,29.5 26.5,31.5C 24.4352,31.5172 22.4352,31.8505 20.5,32.5C 20.5,30.1667 20.5,27.8333 20.5,25.5C 23.7458,24.9459 26.7458,23.9459 29.5,22.5 Z"/></g>
<g><path style="opacity:1" fill="#22a8e6" d="M 26.5,31.5 C 26.5,35.1667 26.5,38.8333 26.5,42.5C 24.5,42.5 22.5,42.5 20.5,42.5C 20.5,39.1667 20.5,35.8333 20.5,32.5C 22.4352,31.8505 24.4352,31.5172 26.5,31.5 Z"/></g>
</svg>
