<svg width="180" height="24" viewBox="0 0 180 24" fill="none" xmlns="http://www.w3.org/2000/svg">
<path d="M55.3203 13.8913C55.3203 9.75682 58.387 6.85498 62.556 6.85498C66.3007 6.85498 69.29 9.27404 69.6423 12.6818C69.717 13.3597 69.693 14.0839 69.6423 14.7131H58.4351C58.7607 17.1064 60.5196 18.5086 62.6308 18.5086C64.1388 18.5086 65.6708 17.7587 66.2233 16.3797H69.3647C68.7855 19.0401 66.1993 20.925 62.556 20.925C58.3603 20.925 55.3203 18.0232 55.3203 13.8887V13.8913ZM66.4768 12.538C66.1245 10.3629 64.2909 9.27404 62.6334 9.27404C60.6744 9.27404 59.0409 10.4579 58.5365 12.538H66.4768Z" fill="#002E33"/>
<path d="M71.2031 13.914C71.2031 9.97212 74.043 6.87769 78.1639 6.87769C80.2485 6.87769 81.7324 7.62754 82.712 8.7626V7.14219H85.6773V20.6319H82.712V19.0115C81.7324 20.1953 80.2485 20.9221 78.1639 20.9221C74.043 20.9221 71.2031 17.8276 71.2031 13.9114V13.914ZM78.4896 18.313C80.7262 18.313 82.6346 16.5231 82.6346 13.914C82.6346 11.3049 80.7502 9.48934 78.4896 9.48934C76.1035 9.48934 74.2672 11.2304 74.2672 13.914C74.2672 16.5976 76.1008 18.313 78.4896 18.313Z" fill="#002E33"/>
<path d="M89.0339 18.2671V5.93301V3.56274H92.0499V18.2645V20.6348H89.0312V18.2645L89.0339 18.2671Z" fill="#002E33"/>
<path d="M95.2812 17.178V9.70768V7.14481V3.58813H98.3213V7.14481H101.663V9.70768H98.3213V18.0742H101.564V20.6371H98.9005C96.6398 20.6371 95.2812 19.5739 95.2812 17.1806V17.178Z" fill="#002E33"/>
<path d="M104.203 5.93301V3.56274H107.243V8.49844C107.87 7.57909 109.229 6.85492 110.812 6.85492C113.828 6.85492 115.712 8.76551 115.712 12.0525V20.6348H112.672V12.2708C112.672 10.4809 111.591 9.3202 110.032 9.3202C108.474 9.3202 107.243 10.409 107.243 12.3427V20.6348H104.203V5.93301Z" fill="#002E33"/>
<path d="M49.5306 5.26333V10.7541H41.7081V13.7949H38.543V21.0064L41.7081 19.2572V13.7949H49.5306V21.0064L52.723 19.2572V3.49854L49.5306 5.26333ZM38.543 5.26333V10.7541H41.7081V3.49854L38.543 5.26333Z" fill="#002E33"/>
<path d="M38.544 10.7512H35.3516V13.8228H38.544V10.7512Z" fill="#002E33"/>
<path d="M118.648 3.60107H124.806C128.5 3.60107 131.062 6.16394 131.062 9.33028C131.062 12.4966 128.524 15.0364 124.806 15.0364H121.739V19.2705L118.648 20.9909V3.60107ZM124.203 12.4992C126.365 12.4992 127.795 11.3641 127.795 9.33285C127.795 7.30156 126.338 6.14083 124.176 6.14083H121.739V12.4992H124.203Z" fill="#00D6B8"/>
<path d="M136.765 7.17847H140.133V9.74133H136.188V20.6682H133.148V10.6376C133.148 8.24419 134.504 7.18103 136.768 7.18103L136.765 7.17847Z" fill="#00D6B8"/>
<path d="M140.891 13.9503C140.891 9.84154 143.856 6.9397 148.126 6.9397C152.397 6.9397 155.439 9.84154 155.439 13.9503C155.439 18.0591 152.45 20.961 148.126 20.961C143.803 20.961 140.891 18.0591 140.891 13.9503ZM148.126 18.3493C150.438 18.3493 152.373 16.657 152.373 13.9503C152.373 11.2437 150.438 9.55135 148.126 9.55135C145.815 9.55135 143.955 11.2206 143.955 13.9503C143.955 16.6801 145.839 18.3493 148.126 18.3493Z" fill="#00D6B8"/>
<path d="M156.996 13.9503C156.996 9.84154 159.961 6.9397 164.232 6.9397C168.502 6.9397 171.545 9.84154 171.545 13.9503C171.545 18.0591 168.556 20.961 164.232 20.961C159.908 20.961 156.996 18.0591 156.996 13.9503ZM164.232 18.3493C166.543 18.3493 168.478 16.657 168.478 13.9503C168.478 11.2437 166.543 9.55135 164.232 9.55135C161.92 9.55135 160.06 11.2206 160.06 13.9503C160.06 16.6801 161.944 18.3493 164.232 18.3493Z" fill="#00D6B8"/>
<path d="M177.24 3.49854H179.904V6.0614H176.661V8.72185H179.904V11.2847H176.661V20.6707H173.621V11.2821V8.71928V6.95506C173.621 4.56169 174.977 3.49854 177.24 3.49854Z" fill="#00D6B8"/>
<path fill-rule="evenodd" clip-rule="evenodd" d="M5.75858 0H8.27842V5.25684C8.27842 7.69993 6.76602 9.173 4.15911 9.173C1.5522 9.173 0 7.63735 0 5.25684V0H2.51984V5.26647C2.51984 6.31592 3.13923 6.91285 4.14667 6.91285C5.15412 6.91285 5.75858 6.31592 5.75858 5.26647V0ZM4.26856 18.1992L5.06705 18.3869C7.31576 18.9116 8.1441 19.9202 8.1441 21.1814C8.1441 22.8422 6.61179 24 4.04717 24C2.61188 24 0.845753 23.4175 0.164175 22.2212L1.72633 20.9985C2.35816 21.6195 3.07456 21.995 4.03474 21.995C4.86556 21.995 5.52724 21.7254 5.52724 21.244C5.52724 20.8565 5.22625 20.7073 4.40289 20.5075L3.56709 20.3077C1.33082 19.7709 0.465164 18.5506 0.465164 17.376C0.465164 15.8572 1.85319 14.5695 4.28598 14.5695C5.72624 14.5695 7.16153 15.1592 7.82072 16.2279L6.25857 17.4506C5.72624 16.9885 5.07949 16.6491 4.27354 16.6491C3.40291 16.6491 2.97755 16.9933 2.97755 17.3134C2.97755 17.737 3.38301 17.9874 4.27354 18.1992H4.26856ZM14.445 14.8294H22.4498V16.9451H19.711V23.716H17.1812V16.9451H14.4425V14.8294H14.445ZM20.2309 6.08485H16.6638V2.63324H20.2309V6.08485Z" fill="#002E33"/>
</svg>
